<svg width="1366" height="530" xmlns="http://www.w3.org/2000/svg"><g fill-rule="nonzero" fill="none"><path d="M236.11 420.43l9.21-11c6.38 5.26 13.06 8.6 21.15 8.6 6.39 0 10.23-2.53 10.23-6.68v-.21c0-3.94-2.43-6-14.27-9-14.28-3.65-23.49-7.6-23.49-21.67v-.2c0-12.85 10.33-21.36 24.81-21.36a41 41 0 0 1 26.31 9L282 379.64c-6.28-4.36-12.46-7-18.43-7-5.97 0-9.11 2.73-9.11 6.17v.19c0 4.65 3 6.17 15.29 9.31 14.37 3.75 22.47 8.91 22.47 21.26v.2c0 14.07-10.73 22-26 22a45.083 45.083 0 0 1-30.11-11.34zM345.24 358.68c-21.86 0-37.75 16.5-37.75 36.64v.21c0 20.14 15.69 36.44 37.55 36.44s37.76-16.5 37.76-36.65v-.2c0-20.12-15.69-36.44-37.56-36.44zm21.27 36.85c0 12.15-8.71 22.07-21.27 22.07-12.56 0-21.46-10.13-21.46-22.28v-.2c0-12.14 8.71-22.07 21.26-22.07s21.47 10.13 21.47 22.27v.21zM400.73 359.89h14.37l33.21 43.64v-43.64h15.39v70.86h-13.27l-34.31-45.04v45.04h-15.39zM483.55 395.53v-.21c0-20.14 15.69-36.64 37.15-36.64 12.76 0 20.45 3.44 27.84 9.71l-9.82 11.85c-5.46-4.55-10.33-7.19-18.52-7.19-11.34 0-20.35 10-20.35 22.07v.2c0 13 8.91 22.48 21.46 22.48a24.91 24.91 0 0 0 14.69-4.25v-10.13h-15.7V390h30.77v30.77A46.002 46.002 0 0 1 520.8 432c-22.07 0-37.25-15.52-37.25-36.47zM605.45 395.53v-.21c0-20.14 15.18-36.64 36.95-36.64 13.36 0 21.36 4.45 27.94 10.93l-9.93 11.44c-5.46-5-11-8-18.11-8-11.95 0-20.55 9.93-20.55 22.07v.2c0 12.15 8.4 22.28 20.55 22.28 8.09 0 13.05-3.24 18.62-8.3l9.92 10c-7.29 7.79-15.39 12.65-29.05 12.65-20.85.05-36.34-16.08-36.34-36.42zM722 358.68c-21.87 0-37.76 16.5-37.76 36.64v.21c0 20.14 15.69 36.44 37.56 36.44 21.87 0 37.75-16.5 37.75-36.65v-.2c-.02-20.12-15.71-36.44-37.55-36.44zm21.26 36.85c0 12.15-8.71 22.07-21.26 22.07s-21.47-10.13-21.47-22.28v-.2c0-12.14 8.71-22.07 21.27-22.07 12.56 0 21.46 10.13 21.46 22.27v.21zM777.46 359.89h14.38l33.2 43.64v-43.64h15.39v70.86h-13.26l-34.32-45.04v45.04h-15.39zM878.5 374.27h-21.56v-14.38h58.71v14.38h-21.56v56.48H878.5zM933.68 359.89h53.45v13.87h-37.96v14.37h33.41V402h-33.41v14.89h38.47v13.86h-53.96zM1002.63 420.43l9.22-11c6.37 5.26 13.05 8.6 21.16 8.6 6.37 0 10.22-2.53 10.22-6.68v-.21c0-3.94-2.43-6-14.28-9-14.27-3.65-23.48-7.6-23.48-21.67v-.2c0-12.85 10.32-21.36 24.8-21.36a41 41 0 0 1 26.32 9l-8.1 11.75c-6.28-4.36-12.45-7-18.42-7-5.97 0-9.11 2.73-9.11 6.17v.17c0 4.65 3 6.17 15.28 9.31 14.38 3.75 22.48 8.91 22.48 21.26v.2c0 14.07-10.73 22-26 22a45.122 45.122 0 0 1-30.09-11.34zM1093.25 374.27h-21.57v-14.38h58.72v14.38h-21.57v56.48h-15.58zM1182 127.75c7.86-9.15 13.25-14.48 12-20.82s-22.69-10.75-32.25-1.92c-28.28-22.44-22.49 3.84-18.4 9.7-33.4 23.5-56 85.34-37.82 133.59 17.77 47.17 71.4 53 99.51 19.84 24.89-29.36 20.45-83.31-23.07-140.39h.03zm-21.7 135.82c-18.27-.93-28.71-22.55-27.43-44.65 2.24-38.93 34.78-78.24 34.78-78.24 7.6 6.94 30.45 44.51 29.21 73.27-1.21 28.05-18.31 50.54-36.56 49.62zM134.83 69.93C52.5 79 25.07 127 22.54 133.48c-1.93 5-1.45 6.14 4 6.14s80.17-8.28 101.82-7.22c22 1.08 20.58 25.27 3.25 30.33-70.77 19.85-111.93 70.41-111.93 96.4 0 19.86 14.44 29.25 31.05 29.25 49.46 0 99.51-51.4 108.84-62.71 5.89-7.14 9.54-2.65 9.54.53.08 41.76-44.8 91.06-105 91.06-43 0-63.55-32.86-63.55-60.29 0-52 56.33-96.41 56.33-96.41s-28.55 1.08-38.3 1.08c-7.151.213-13.18-5.289-13.62-12.43-2.66-67.6 67-119.8 130-115.23 24.87 1.8 27.66 33.78-.14 35.95zM207.52 227.81c1.23 12.4 9.69 25.49 21.18 12.93C257.78 207 254.91 114 254.19 104c-.72-10 4.67-12.93 8.61-7.54 3.94 5.39 22.62 35.18 22.62 80.77 0 55.29-33 111.93-58.83 111.93-58.88 0-53.54-134.9-35.94-179.42 9.13-23.13 33.38-13.09 33.38 3.23-.03 23.66-20.1 78.58-16.51 114.84zM506.33 122.35s9.34-12.69 3.72-19.85c-6.32-8.07-26.57-10.59-45.55 10.67-25 28-42.48 87-23.56 136.56 18.06 47.37 68.73 51.37 92.21 15.47 20.93-32.04 15.43-85.42-26.82-142.85zm-13.22 135.49c-16.54 0-25.72-21.36-25.72-44.55 0-40.87 29.39-78.06 29.39-78.06 8.08 10.31 27.55 39.4 27.55 68.85 0 29.45-14.7 53.76-31.22 53.76z" fill="#231F20"/><path d="M355 189.81c34.3-2.17 77.27-28.89 77.27-57.41 0-21.13-22-36.35-50.5-36.35s-60 9.63-71.91 16.85c-15.52 9-4 30.33 10.48 24.55 0 0-5.42 25.28-6.86 38.64-11.73-1.45-14.09.72-13.37 3.25.72 2.53 5.78 4.69 11.56 11.92-1.81 15.88-5 86.52-4.28 92.67.72 6.15 4.45 7.24 9.75.71 4.69-5.77 14.75-19.73 19.44-72.44 5.42 4.68 20.22 24.52 38.28 47.65 26.48 33.95 35.21 36.39 46.09 40.22 5.87 2.07 11.92-1.3 7.6-7.28-17.61-24.44-39.72-73.36-73.55-102.98zm-11.92-56.69s41.17-10.48 55.25-9c12.25 1.26 14.8 6.5 8.56 16.19-14.7 22.82-48.5 30.72-66.7 30.39 1.45-18.44 2.89-37.58 2.89-37.58zM875.79 96.8c10.8 3.5 20.17 22 17.56 52.23-4.26 49.31-37.48 110.64-42.31 133.9-1.61 7.79-7.67 7.42-10.44 3.14-2.64-4.09-8.21-16.65-6.7-47.7 2.07-42.59 34.33-100.94 33.38-137.63-.14-4.91 3.72-5.5 8.51-3.94zM985.13 131.67c-37.91 0-49.71 11.68-49.71 20.59 0 23.83 41.17 22.14 60.19 24.31 11 1.25 25.27 8.42 25.27 27.44 0 21-26.29 37.88-54.22 53.25-29.33 16.14-59.57 32-73.37 41.48-7.11 4.89-11.71-1.43-8.31-8.06 9.82-19.12 28.18-37.14 53.32-54.19 36.79-25 60.44-36.34 50.56-39.94-5.46-2-20.46-3.13-35.87-6-26.47-4.34-43.08-19.74-43.08-42.13 0-36.34 32.56-52.35 77.7-52.35 23.82-.02 26.77 35.6-2.48 35.6zM1056.54 96.2c12 1 32.5 17.09 30.21 58.58-1.79 32.58-29.54 102.69-31.94 128.52-.49 5.25-5.69 8.17-9.66 3.3-7.76-9.5-11.06-19.82-11.06-49.13 0-29.31 25.14-106.44 10.37-134.79-3.36-5.84 5.43-7.04 12.08-6.48zM1054.37 9.34c-2.51-9.91 8.13-11 15.64-4.89 4.84 4 28.93 27.77 28.93 56.56 0 33-45.07 28.68-44.32 1.66.26-9.44 5.51-32.57-.25-53.33zM1354.73 289.71c-28.81-24.86-26.09-96.07-27.54-124.24-1.42-27.69-36.19-25.56-44.71-14-6.15 35.49-8.25 99.25-26.23 134.27-2.6 4.73-9.22 3.92-9.9-1.46-.7-5.68-7.36-20.52-7.36-62.4 0-41.88 4.88-102.28 38.72-123.33 6.15-3.32 10.4-3.32 10.64.23.2 3.11-.9 12.94-1.14 19.33 0 0 12.78-9.7 34.3-9.7 16.57 0 44.49 17.27 44.49 50.87 0 44-8.11 90.7-2.21 127 .84 5.24-5.17 6.78-9.06 3.43z" fill="#231F20"/><path d="M686.13 62.78c-1.94-2.72-3.61-5.54-5.72-8-8.15-9.39-18.59-15.16-30.42-18.47-7.74-2.17-15.67-3.43-23.69-2-15.3 2.8-28.17 10.36-39.52 20.69-14 12.77-23.27 28.55-28.66 46.63-6.44 21.62-7.48 43.62-4.1 65.86 3.34 21.89 12.28 41.32 26.08 58.57 12.11 15.13 26.82 27.38 42.81 38.1 13.2 8.84 26.75 17.16 40 25.88 8.24 5.41 16.15 11.24 22 19.43 2.48 3.46 6.69 2.58 8.2-1.62a67.76 67.76 0 0 1 11.05-19.08c10-12.67 22-23.39 33.94-34.18 15.1-13.68 30.41-27.13 45.21-41.12 16.41-15.49 31.27-32.37 43.3-51.58 17.49-27.94 25.76-58 20.84-91.06-2.23-15.05-7.33-29-16.51-41.29-16.42-22-43-34.73-73.18-25.8-21 6.23-38.26 18.22-53.08 34a142.38 142.38 0 0 0-18.55 25.04z" fill="#FEFEFE"/><path d="M686.13 62.78a142.38 142.38 0 0 1 18.59-25c14.82-15.81 32-27.8 53.08-34 30.18-8.93 56.76 3.84 73.18 25.8 9.18 12.26 14.28 26.24 16.51 41.29 4.92 33.06-3.35 63.12-20.84 91.06-12 19.21-26.89 36.09-43.3 51.58-14.8 14-30.11 27.44-45.21 41.12-11.92 10.79-23.91 21.51-33.94 34.18a67.76 67.76 0 0 0-11.05 19.08c-1.51 4.2-5.72 5.08-8.2 1.62-5.87-8.19-13.78-14-22-19.43-13.27-8.72-26.82-17-40-25.88-16-10.72-30.7-23-42.81-38.1-13.8-17.25-22.74-36.68-26.08-58.57-3.38-22.24-2.34-44.24 4.1-65.86 5.39-18.08 14.64-33.86 28.66-46.63 11.35-10.33 24.23-17.89 39.52-20.65 8-1.44 16-.18 23.69 2 11.83 3.31 22.27 9.08 30.42 18.47 2.07 2.38 3.74 5.2 5.68 7.92zM764 189.28c2.64-3.18 5.34-6.31 7.91-9.55 11.63-14.73 22.09-30.28 29.6-47.57 5-11.46 8.68-23.3 9.73-35.85a3.73 3.73 0 0 0 .18-.63c.893-9 .59-18.08-.9-27a73 73 0 0 0-8.89-25.82c-6.85-11.51-16.65-19-30.16-20.66-11-1.37-21.48.89-31.38 5.84-14.54 7.29-26 18.13-35.74 31-5.72 7.58-10.81 15.54-13 25a10.21 10.21 0 0 1-1 2.44c-2.2 4.16-6 4.95-9.16 1.48a19.14 19.14 0 0 1-4.16-7.38 40 40 0 0 0-8.2-15.8c-9.34-10.81-21.45-15-35.36-13.63-9.48 1-17.5 5.74-24.38 12.21-15.38 14.45-21.94 33.07-24.91 53.35-.44 3.65-1 7.29-1.3 10.95-1.92 20.2.77 39.67 10 57.87 3.39 6.67 7.76 12.83 11.68 19.22 5.48 6.5 10.65 13.29 16.51 19.43 12.67 13.25 27.23 24.38 41.51 35.8 7.16 5.73 14.39 11.42 20.24 18.6 1.08 1.32 2 2.78 3.07 4.26 3.55-8.8 9-17.7 17.36-26.89 12.58-13.88 25.45-27.5 38.08-41.32 7.67-8.35 15.09-16.89 22.67-25.35z" fill="#231F20"/><path d="M604.58 204.76c-3.92-6.39-8.29-12.55-11.68-19.22-9.24-18.2-11.93-37.67-10-57.87.35-3.66.86-7.3 1.3-10.95 2.95-.27 5.89-.55 8.84-.81 10.667-.953 21.353-1.9 32.06-2.84 12.667-1.127 25.333-2.267 38-3.42l31.39-2.82c12.38-1.12 24.76-2.243 37.14-3.37 12.31-1.11 24.62-2.17 36.92-3.28l42.67-3.87c-1 12.55-4.72 24.39-9.73 35.85-7.56 17.29-18 32.84-29.65 47.57-2.57 3.24-5.27 6.37-7.91 9.55-5.08.47-10.16.92-15.24 1.41-14.57 1.41-29.14 2.86-43.71 4.27-14.57 1.41-29.3 2.76-44 4.16a26216.58 26216.58 0 0 0-45.48 4.38c-3.6.36-7.26.84-10.92 1.26z" fill="#FEFEFE"/><path d="M811.24 96.31l-42.67 3.87c-12.3 1.11-24.61 2.17-36.92 3.28-12.31 1.11-24.76 2.25-37.14 3.37-10.46.953-20.923 1.893-31.39 2.82l-38 3.42c-10.667.96-21.353 1.907-32.06 2.84-2.95.26-5.89.54-8.84.81 3-20.28 9.53-38.9 24.91-53.35 6.88-6.47 14.9-11.25 24.38-12.21 13.91-1.41 26 2.82 35.36 13.63a40 40 0 0 1 8.2 15.8A19.14 19.14 0 0 0 681.2 88c3.12 3.47 7 2.68 9.16-1.48a10.21 10.21 0 0 0 1-2.44c2.15-9.47 7.24-17.43 13-25 9.7-12.85 21.2-23.69 35.74-31 9.9-4.95 20.37-7.21 31.38-5.84 13.51 1.69 23.31 9.15 30.16 20.66a73 73 0 0 1 8.89 25.82c1.49 8.92 1.793 18 .9 27a3.73 3.73 0 0 1-.19.59z" fill="#D9332F"/><path d="M604.58 204.76c3.66-.42 7.32-.9 11-1.26 15.16-1.48 30.32-2.94 45.48-4.38 14.65-1.4 29.3-2.75 44-4.16 14.7-1.41 29.14-2.86 43.71-4.27 5.08-.49 10.16-.94 15.24-1.41-7.53 8.46-15 17-22.6 25.36-12.63 13.82-25.5 27.44-38.08 41.32-8.32 9.19-13.81 18.09-17.36 26.89-1.06-1.48-2-2.94-3.07-4.26-5.85-7.18-13.08-12.87-20.24-18.6-14.28-11.42-28.84-22.55-41.51-35.8-5.92-6.14-11.09-12.93-16.57-19.43z" fill="#195F97"/><path d="M236.29 470.08h25c7.13 0 12.86 2.16 16.51 5.81a16 16 0 0 1 4.48 11.45v.17c0 9.62-6.64 15.27-15.77 16.93l17.85 23.73h-8l-16.92-22.57h-16.6v22.57h-6.55v-58.09zm24.4 29.63c8.71 0 14.93-4.48 14.93-12v-.17c0-7.14-5.47-11.45-14.85-11.45h-17.93v23.57l17.85.05zM301.91 499.29v-.16c0-16 12-30 29.71-30s29.55 13.86 29.55 29.88v.17c0 16-12 30-29.71 30s-29.55-13.87-29.55-29.89zm52.45 0v-.16c0-13.2-9.62-24-22.9-24s-22.74 10.63-22.74 23.87v.17c0 13.19 9.63 24 22.9 24 13.27 0 22.74-10.68 22.74-23.88zM395.16 476.14h-19.5v-6.06h45.64v6.06h-19.5v52h-6.64zM459.51 476.14H440v-6.06h45.64v6.06h-19.5v52h-6.64zM506.22 470.08h42v6h-35.44v19.84h31.7v6h-31.7v20.28h35.85v6h-42.41zM570.13 470.08h25c7.13 0 12.86 2.16 16.51 5.81a16 16 0 0 1 4.48 11.45v.17c0 9.62-6.64 15.27-15.77 16.93l17.85 23.73h-8l-16.92-22.57h-16.6v22.57h-6.55v-58.09zm24.4 29.63c8.71 0 14.93-4.48 14.93-12v-.17c0-7.14-5.47-11.45-14.85-11.45h-17.93v23.57l17.85.05zM639.59 470.08h20.16c18.26 0 30.88 12.53 30.88 28.88v.17c0 16.35-12.62 29-30.88 29h-20.16v-58.05zm6.55 6.06v46h13.61c14.69 0 24.07-10 24.07-22.83v-.16c0-12.87-9.38-23-24.07-23l-13.61-.01zM730.94 469.66h6.15l26.47 58.51h-7l-6.81-15.35h-31.67l-6.89 15.35h-6.72l26.47-58.51zm16.19 37.18l-13.2-29.54-13.28 29.54h26.48zM783.8 470.08h6.64l21.16 31.7 21.17-31.7h6.63v58.09h-6.55v-47l-21.16 31.12h-.34l-21.16-31v47h-6.39zM898.09 523.11l21.08-18.59c8.88-8 12.12-12.45 12.12-18.26 0-6.8-5.4-11.12-11.7-11.12-6.64 0-11 3.49-15.61 10l-4.81-3.48c5.23-7.81 10.71-12.37 20.91-12.37 10.46 0 18 7 18 16.43v.17c0 8.46-4.48 13.69-14.69 22.57l-15.51 13.74h30.79v6h-40.58v-5.09zM957.39 499.29v-.16c0-16.27 9.71-30 24.64-30s24.4 13.61 24.4 29.88v.17c0 16.26-9.62 30-24.56 30s-24.48-13.62-24.48-29.89zm42.24 0v-.16c0-12.7-7-24.07-17.76-24.07-10.76 0-17.68 11.12-17.68 23.9v.17c0 12.69 7 24.06 17.84 24.06s17.6-11.19 17.6-23.9zM1023.17 523.11l21.08-18.59c8.88-8 12.12-12.45 12.12-18.26 0-6.8-5.4-11.12-11.7-11.12-6.64 0-11 3.49-15.61 10l-4.81-3.48c5.23-7.81 10.71-12.37 20.91-12.37 10.46 0 18 7 18 16.43v.17c0 8.46-4.48 13.69-14.69 22.57L1033 522.2h30.79v6h-40.58l-.04-5.09zM1082.47 499.29v-.16c0-16.27 9.71-30 24.64-30s24.4 13.61 24.4 29.88v.17c0 16.26-9.62 30-24.56 30s-24.48-13.62-24.48-29.89zm42.24 0v-.16c0-12.7-7-24.07-17.76-24.07-10.76 0-17.68 11.12-17.68 23.9v.17c0 12.69 7 24.06 17.84 24.06s17.6-11.19 17.6-23.9z" fill="#231F20"/></g></svg>
