<?xml version="1.0" encoding="UTF-8" standalone="no"?>
<!-- Created with Inkscape (http://www.inkscape.org/) -->

<svg
   xmlns:dc="http://purl.org/dc/elements/1.1/"
   xmlns:cc="http://creativecommons.org/ns#"
   xmlns:rdf="http://www.w3.org/1999/02/22-rdf-syntax-ns#"
   xmlns:svg="http://www.w3.org/2000/svg"
   xmlns="http://www.w3.org/2000/svg"
   xmlns:sodipodi="http://sodipodi.sourceforge.net/DTD/sodipodi-0.dtd"
   xmlns:inkscape="http://www.inkscape.org/namespaces/inkscape"
   width="200.00009"
   height="317.80704"
   viewBox="0 0 52.916691 84.086447"
   version="1.1"
   id="svg8"
   inkscape:version="0.92.4 (5da689c313, 2019-01-14)"
   sodipodi:docname="ESC 2020.svg">
  <defs
     id="defs2" />
  <sodipodi:namedview
     id="base"
     pagecolor="#ffffff"
     bordercolor="#666666"
     borderopacity="1.0"
     inkscape:pageopacity="0.0"
     inkscape:pageshadow="2"
     inkscape:zoom="0.70710678"
     inkscape:cx="466.86086"
     inkscape:cy="205.56129"
     inkscape:document-units="px"
     inkscape:current-layer="layer1"
     showgrid="false"
     units="px"
     inkscape:window-width="1920"
     inkscape:window-height="1017"
     inkscape:window-x="1912"
     inkscape:window-y="-8"
     inkscape:window-maximized="1"
     inkscape:snap-bbox="true"
     inkscape:bbox-nodes="true"
     inkscape:snap-bbox-midpoints="true"
     inkscape:snap-bbox-edge-midpoints="true"
     inkscape:bbox-paths="true"
     inkscape:snap-object-midpoints="true"
     inkscape:snap-center="true"
     inkscape:snap-grids="true"
     fit-margin-top="0"
     fit-margin-left="0"
     fit-margin-right="0"
     fit-margin-bottom="0">
    <inkscape:grid
       type="xygrid"
       id="grid18"
       originx="-890.85204"
       originy="695.19685" />
  </sodipodi:namedview>
  <metadata
     id="metadata5">
    <rdf:RDF>
      <cc:Work
         rdf:about="">
        <dc:format>image/svg+xml</dc:format>
        <dc:type
           rdf:resource="http://purl.org/dc/dcmitype/StillImage" />
        <dc:title></dc:title>
      </cc:Work>
    </rdf:RDF>
  </metadata>
  <g
     inkscape:label="Layer 1"
     inkscape:groupmode="layer"
     id="layer1"
     transform="translate(-890.85205,-908.11039)">
    <path
       style="opacity:1;fill:#3158a7;fill-opacity:1;stroke:none;stroke-width:0.01386186;stroke-linecap:butt;stroke-linejoin:miter;stroke-miterlimit:8.51000023;stroke-dasharray:none;stroke-opacity:1"
       d="m 921.80993,963.16243 1.82652,7.80163 c -0.67062,0.16149 -1.34628,0.28276 -2.0234,0.39235 l -1.2193,-7.91891 0.5836,-0.67327 z"
       id="path13619"
       inkscape:connector-curvature="0"
       sodipodi:nodetypes="cccccc" />
    <path
       style="opacity:1;fill:#3158a7;fill-opacity:1;stroke:none;stroke-width:0.01386186;stroke-linecap:butt;stroke-linejoin:miter;stroke-miterlimit:8.51000023;stroke-dasharray:none;stroke-opacity:1"
       d="m 910.55606,927.64217 -2.99936,-7.42974 c 0.57642,-0.22542 1.15853,-0.45146 1.94596,-0.69926 l 2.41521,7.63972 -0.28533,1.06488 z"
       id="path13635"
       inkscape:connector-curvature="0"
       sodipodi:nodetypes="cccccc" />
    <path
       style="opacity:1;fill:#ffffff;fill-opacity:1;stroke:none;stroke-width:0.01386186;stroke-linecap:butt;stroke-linejoin:miter;stroke-miterlimit:8.51000023;stroke-dasharray:none;stroke-opacity:1"
       d="m 913.75187,935.55989 -3.19581,-7.91772 c 0.44938,-0.17979 0.90264,-0.34538 1.36181,-0.48928 l 2.57388,8.14157 -0.26736,0.46304 z"
       id="path13599"
       inkscape:connector-curvature="0"
       sodipodi:nodetypes="cccccc" />
    <path
       style="opacity:1;fill:#ec1d24;fill-opacity:1;stroke:none;stroke-width:0.01386186;stroke-linecap:butt;stroke-linejoin:miter;stroke-miterlimit:8.51000023;stroke-dasharray:none;stroke-opacity:1"
       d="m 911.9142,962.7848 -2.41642,7.63951 c -1.3106,-0.42128 -2.58042,-0.93043 -3.80608,-1.53466 l -0.3942,-1.47118 -1.40459,0.49176 c -2.38957,-1.42242 -4.45756,-3.15086 -6.28465,-5.19006 l 5.98462,-5.32698 h 6.24994 z"
       id="path13621"
       inkscape:connector-curvature="0"
       sodipodi:nodetypes="ccccccccc" />
    <path
       style="opacity:1;fill:#3058a6;fill-opacity:1;stroke:none;stroke-width:0.01386186;stroke-linecap:butt;stroke-linejoin:miter;stroke-miterlimit:8.51000023;stroke-dasharray:none;stroke-opacity:1"
       d="m 930.50879,931.50823 h -4.22624 l 6.4104,-7.23537 1.81802,0.0788 c 0.52336,0.42837 1.05024,0.90009 1.55566,1.38434 z"
       id="path13603"
       inkscape:connector-curvature="0"
       sodipodi:nodetypes="cccccc" />
    <path
       style="opacity:1;fill:#ffc834;fill-opacity:1;stroke:none;stroke-width:0.01386186;stroke-linecap:butt;stroke-linejoin:miter;stroke-miterlimit:8.51000023;stroke-dasharray:none;stroke-opacity:1"
       d="m 924.58745,937.65938 5.92134,-6.15115 c -0.34654,-0.33419 -0.70894,-0.65729 -1.08816,-0.9686 h -2.86362 l -3.99868,6.92592 z"
       id="path13555"
       inkscape:connector-curvature="0"
       sodipodi:nodetypes="cccccc" />
    <path
       style="opacity:1;fill:#ec1d24;fill-opacity:1;stroke:none;stroke-width:0.01386186;stroke-linecap:butt;stroke-linejoin:miter;stroke-miterlimit:8.51000023;stroke-dasharray:none;stroke-opacity:1"
       d="m 917.55001,926.28328 v -8.01215 c 5.65946,0 11.7964,1.83512 16.96096,6.08048 l -5.09034,6.18802 -6.56672,1.75955 z"
       id="path13601"
       inkscape:connector-curvature="0"
       sodipodi:nodetypes="cccccc" />
    <path
       style="opacity:1;fill:#ffffff;fill-opacity:1;stroke:none;stroke-width:0.01386186;stroke-linecap:butt;stroke-linejoin:miter;stroke-miterlimit:8.51000023;stroke-dasharray:none;stroke-opacity:1"
       d="m 917.55001,934.82218 v -8.5389 c 1.9969,0 3.88252,0.31246 5.62996,0.86917 l 0.60292,2.25014 2.04006,-1.18796 c 1.22684,0.61185 2.46142,1.3815 3.59768,2.325 l -5.4413,6.61395 -4.2071,1.12728 z"
       id="path13551"
       inkscape:connector-curvature="0"
       sodipodi:nodetypes="ccccccccc" />
    <path
       style="opacity:1;fill:#3158a7;fill-opacity:1;stroke:none;stroke-width:0.01386186;stroke-linecap:butt;stroke-linejoin:miter;stroke-miterlimit:8.51000023;stroke-dasharray:none;stroke-opacity:1"
       d="m 917.55001,944.96907 v -10.14689 c 1.28582,0 2.30746,0.26587 2.30746,0.26587 l 0.77,0.77 1.41498,0.0128 c 0,0 1.35146,0.61599 2.545,1.78857 z"
       id="path13501"
       inkscape:connector-curvature="0"
       sodipodi:nodetypes="ccccccc" />
    <path
       style="opacity:1;fill:#020303;fill-opacity:1;stroke:none;stroke-width:0.01386186;stroke-linecap:butt;stroke-linejoin:miter;stroke-miterlimit:8.51000023;stroke-dasharray:none;stroke-opacity:1"
       d="m 920.60741,935.29381 2.57256,-8.14136 c 1.11664,0.35122 1.9049,0.7064 2.64298,1.06218 l -3.7805,7.65618 -1.07494,0.34801 z"
       id="path13553"
       inkscape:connector-curvature="0"
       sodipodi:nodetypes="cccccc" />
    <path
       style="opacity:1;fill:#fec833;fill-opacity:1;stroke:none;stroke-width:0.01386186;stroke-linecap:butt;stroke-linejoin:miter;stroke-miterlimit:8.51000023;stroke-dasharray:none;stroke-opacity:1"
       d="m 920.60741,935.29381 -0.75634,1.10863 -2.30106,8.56663 4.49244,-9.09826 c -0.71304,-0.3583 -1.43504,-0.577 -1.43504,-0.577 z"
       id="path13505"
       inkscape:connector-curvature="0"
       sodipodi:nodetypes="ccccc" />
    <path
       style="opacity:1;fill:#04a959;fill-opacity:1;stroke:none;stroke-width:0.01386186;stroke-linecap:butt;stroke-linejoin:miter;stroke-miterlimit:8.51000023;stroke-dasharray:none;stroke-opacity:1"
       d="m 917.55001,944.96907 2.30746,-9.88102 c 0.32944,0.0735 0.74994,0.20576 0.74994,0.20576 z"
       id="path13503"
       inkscape:connector-curvature="0"
       sodipodi:nodetypes="cccc" />
    <path
       style="opacity:1;fill:#f58b36;fill-opacity:1;stroke:none;stroke-width:0.01386186;stroke-linecap:butt;stroke-linejoin:miter;stroke-miterlimit:8.51000023;stroke-dasharray:none;stroke-opacity:1"
       d="m 943.29215,937.89009 c 0.1847,0.66988 0.33942,1.33725 0.4687,2.0025 l -7.86618,1.52362 -1.42044,-0.82009 v -1.00793 l 7.7083,-2.46494 z"
       id="path13609"
       inkscape:connector-curvature="0"
       sodipodi:nodetypes="ccccccc" />
    <path
       style="opacity:1;fill:#ffffff;fill-opacity:1;stroke:none;stroke-width:0.01386186;stroke-linecap:butt;stroke-linejoin:miter;stroke-miterlimit:8.51000023;stroke-dasharray:none;stroke-opacity:1"
       d="m 927.51225,943.03988 -0.69224,-0.39966 0.42496,-0.73604 7.34952,-2.34049 0.9728,0.45139 c 0.11672,0.4329 0.22904,0.88558 0.32738,1.40113 z"
       id="path13563"
       inkscape:connector-curvature="0"
       sodipodi:nodetypes="ccccccc" />
    <path
       style="opacity:1;fill:#ec1d24;fill-opacity:1;stroke:none;stroke-width:0.01386186;stroke-linecap:butt;stroke-linejoin:miter;stroke-miterlimit:8.51000023;stroke-dasharray:none;stroke-opacity:1"
       d="m 927.09801,941.53576 15.57436,-5.60116 c 0.2149,0.62069 0.43034,1.23933 0.61978,1.95549 l -15.99634,4.39912 -0.433,-0.25 z"
       id="path13561"
       inkscape:connector-curvature="0"
       sodipodi:nodetypes="cccccc" />
    <path
       style="opacity:1;fill:#ffc834;fill-opacity:1;stroke:none;stroke-width:0.01386186;stroke-linecap:butt;stroke-linejoin:miter;stroke-miterlimit:8.51000023;stroke-dasharray:none;stroke-opacity:1"
       d="m 939.95359,930.44844 c 0.35822,0.56736 0.71478,1.1402 1.05372,1.77183 l -7.03966,3.82598 -1.90932,-1.10235 6.21184,-4.43708 z"
       id="path13607"
       inkscape:connector-curvature="0"
       sodipodi:nodetypes="cccccc" />
    <path
       style="opacity:1;fill:#ec1d24;fill-opacity:1;stroke:none;stroke-width:0.01386186;stroke-linecap:butt;stroke-linejoin:miter;stroke-miterlimit:8.51000023;stroke-dasharray:none;stroke-opacity:1"
       d="m 931.48671,932.52252 5.97564,-5.33681 c 0.92418,1.03907 1.75654,2.12564 2.49124,3.26273 l -6.7453,4.37178 h -1.868 z"
       id="path13605"
       inkscape:connector-curvature="0"
       sodipodi:nodetypes="cccccc" />
    <path
       style="opacity:1;fill:#ffffff;fill-opacity:1;stroke:none;stroke-width:0.01386186;stroke-linecap:butt;stroke-linejoin:miter;stroke-miterlimit:8.51000023;stroke-dasharray:none;stroke-opacity:1"
       d="m 932.40289,933.63169 c 0.53674,0.69872 1.06066,1.48737 1.56476,2.41456 l -7.50262,4.07799 -1.34542,-0.3605 v -1.08221 l 6.22068,-5.20477 z"
       id="path13559"
       inkscape:connector-curvature="0"
       sodipodi:nodetypes="ccccccc" />
    <path
       style="opacity:1;fill:#37bdee;fill-opacity:1;stroke:none;stroke-width:0.01386186;stroke-linecap:butt;stroke-linejoin:miter;stroke-miterlimit:8.51000023;stroke-dasharray:none;stroke-opacity:1"
       d="m 917.55001,944.96907 8.91502,-4.84483 c -0.2183,-0.39979 -0.47922,-0.82412 -0.8493,-1.31131 l -0.69482,0.0883 z"
       id="path13509"
       inkscape:connector-curvature="0"
       sodipodi:nodetypes="ccccc" />
    <path
       style="opacity:1;fill:#3158a7;fill-opacity:1;stroke:none;stroke-width:0.01386186;stroke-linecap:butt;stroke-linejoin:miter;stroke-miterlimit:8.51000023;stroke-dasharray:none;stroke-opacity:1"
       d="m 925.11751,938.21043 6.3692,-5.68791 c 0.25348,0.28422 0.51378,0.57965 0.91618,1.10917 l -6.78716,5.18124 h -0.56298 z"
       id="path13557"
       inkscape:connector-curvature="0"
       sodipodi:nodetypes="cccccc" />
    <path
       style="opacity:1;fill:#ffffff;fill-opacity:1;stroke:none;stroke-width:0.01386186;stroke-linecap:butt;stroke-linejoin:miter;stroke-miterlimit:8.51000023;stroke-dasharray:none;stroke-opacity:1"
       d="m 917.55001,944.96907 7.5675,-6.75864 c 0,0 0.26802,0.29656 0.49822,0.6025 z"
       id="path13507"
       inkscape:connector-curvature="0"
       sodipodi:nodetypes="cccc" />
    <path
       style="opacity:1;fill:#04aa5a;fill-opacity:1;stroke:none;stroke-width:0.01386186;stroke-linecap:butt;stroke-linejoin:miter;stroke-miterlimit:8.51000023;stroke-dasharray:none;stroke-opacity:1"
       d="m 917.55001,944.96907 9.548,-3.43331 c 0.17812,0.49337 0.3178,0.99442 0.41424,1.50412 z"
       id="path13511"
       inkscape:connector-curvature="0"
       sodipodi:nodetypes="cccc" />
    <path
       style="opacity:1;fill:#ffffff;fill-opacity:1;stroke:none;stroke-width:0.01386186;stroke-linecap:butt;stroke-linejoin:miter;stroke-miterlimit:8.51000023;stroke-dasharray:none;stroke-opacity:1"
       d="m 928.30143,960.25165 4.61022,6.55343 c -0.5633,0.39983 -1.14042,0.76928 -1.7268,1.11832 l -4.09212,-6.88868 0.264,-0.98527 z"
       id="path13617"
       inkscape:connector-curvature="0"
       sodipodi:nodetypes="cccccc" />
    <path
       style="opacity:1;fill:#f48b35;fill-opacity:1;stroke:none;stroke-width:0.01386186;stroke-linecap:butt;stroke-linejoin:miter;stroke-miterlimit:8.51000023;stroke-dasharray:none;stroke-opacity:1"
       d="m 923.38845,953.2682 4.91298,6.98345 c -0.3963,0.27916 -0.79932,0.53985 -1.2087,0.78307 l -4.36088,-7.34145 0.15236,-0.56863 z"
       id="path13569"
       inkscape:connector-curvature="0"
       sodipodi:nodetypes="cccccc" />
    <path
       style="opacity:1;fill:#3058a6;fill-opacity:1;stroke:none;stroke-width:0.01386186;stroke-linecap:butt;stroke-linejoin:miter;stroke-miterlimit:8.51000023;stroke-dasharray:none;stroke-opacity:1"
       d="m 941.91369,955.88754 c -0.2805,0.63225 -0.5847,1.24942 -0.91602,1.84933 l -7.0374,-3.83144 -0.5665,-1.57488 0.61752,-0.76454 7.39546,2.97975 z"
       id="path13615"
       inkscape:connector-curvature="0"
       sodipodi:nodetypes="ccccccc" />
    <path
       style="opacity:1;fill:#ffffff;fill-opacity:1;stroke:none;stroke-width:0.01386186;stroke-linecap:butt;stroke-linejoin:miter;stroke-miterlimit:8.51000023;stroke-dasharray:none;stroke-opacity:1"
       d="m 935.13779,951.27946 7.54198,2.70592 c -0.37648,1.02765 -0.5674,1.45235 -0.76608,1.90216 l -7.31228,-3.27626 -0.59012,-1.04527 z"
       id="path13613"
       inkscape:connector-curvature="0"
       sodipodi:nodetypes="cccccc" />
    <path
       style="opacity:1;fill:#ffffff;fill-opacity:1;stroke:none;stroke-width:0.01386186;stroke-linecap:butt;stroke-linejoin:miter;stroke-miterlimit:8.51000023;stroke-dasharray:none;stroke-opacity:1"
       d="m 934.60141,952.61128 c -0.25712,0.57712 -0.44662,0.92723 -0.64114,1.29415 l -7.49902,-4.0832 -0.14828,-0.55335 0.3027,-0.64028 7.39562,2.93741 z"
       id="path13567"
       inkscape:connector-curvature="0"
       sodipodi:nodetypes="ccccccc" />
    <path
       style="opacity:1;fill:#37bcee;fill-opacity:1;stroke:none;stroke-width:0.01386186;stroke-linecap:butt;stroke-linejoin:miter;stroke-miterlimit:8.51000023;stroke-dasharray:none;stroke-opacity:1"
       d="m 927.10083,948.39522 8.03696,2.88424 c -0.218,0.60682 -0.37696,0.96834 -0.53638,1.33182 l -7.79232,-3.49189 -0.19342,-0.49079 z"
       id="path13565"
       inkscape:connector-curvature="0"
       sodipodi:nodetypes="cccccc" />
    <path
       style="opacity:1;fill:#ec1d24;fill-opacity:1;stroke:#ff0000;stroke-width:0.01386186;stroke-linecap:butt;stroke-linejoin:miter;stroke-miterlimit:8.51000023;stroke-dasharray:none;stroke-opacity:1"
       d="m 935.89461,948.52286 7.86602,1.52354 c -0.1721,0.89741 -0.32032,1.44142 -0.47,2.00737 l -7.72474,-2.12573 -0.521,-0.9024 z"
       id="path13611"
       inkscape:connector-curvature="0"
       sodipodi:nodetypes="cccccc" />
    <path
       style="opacity:1;fill:#ffffff;fill-opacity:1;stroke:none;stroke-width:0.01386186;stroke-linecap:butt;stroke-linejoin:miter;stroke-miterlimit:8.51000023;stroke-dasharray:none;stroke-opacity:1"
       d="m 917.55001,944.96907 18.3446,3.55379 c -0.0941,0.48905 -0.20526,0.95531 -0.32872,1.40518 z"
       id="path13513"
       inkscape:connector-curvature="0"
       sodipodi:nodetypes="cccc" />
    <path
       style="opacity:1;fill:#3158a7;fill-opacity:1;stroke:none;stroke-width:0.01386186;stroke-linecap:butt;stroke-linejoin:miter;stroke-miterlimit:8.51000023;stroke-dasharray:none;stroke-opacity:1"
       d="m 926.80909,949.11939 c -0.1059,0.24635 -0.22584,0.47584 -0.34784,0.70284 l -8.91124,-4.85316 9.06566,3.65953 z"
       id="path13517"
       inkscape:connector-curvature="0"
       sodipodi:nodetypes="ccccc" />
    <path
       style="opacity:1;fill:#ffffff;fill-opacity:1;stroke:none;stroke-width:0.01386186;stroke-linecap:butt;stroke-linejoin:miter;stroke-miterlimit:8.51000023;stroke-dasharray:none;stroke-opacity:1"
       d="m 917.55001,944.96907 9.55082,3.42615 c -0.0954,0.26359 -0.19308,0.49963 -0.29174,0.72417 z"
       id="path13515"
       inkscape:connector-curvature="0"
       sodipodi:nodetypes="cccc" />
    <path
       style="opacity:1;fill:#ffffff;fill-opacity:1;stroke:none;stroke-width:0.01386186;stroke-linecap:butt;stroke-linejoin:miter;stroke-miterlimit:8.51000023;stroke-dasharray:none;stroke-opacity:1"
       d="m 917.55001,944.96907 5.83844,8.29913 c -0.21476,0.14991 -0.4321,0.29466 -0.6566,0.42507 z"
       id="path13519"
       inkscape:connector-curvature="0"
       sodipodi:nodetypes="cccc" />
    <path
       style="opacity:1;fill:#fec733;fill-opacity:1;stroke:none;stroke-width:0.01386186;stroke-linecap:butt;stroke-linejoin:miter;stroke-miterlimit:8.51000023;stroke-dasharray:none;stroke-opacity:1"
       d="m 905.66413,959.38832 c -0.60815,-0.50799 -1.24988,-1.08007 -2.07125,-1.99513 l 6.37708,-5.67773 2.58978,1.04397 -4.68499,6.89798 z"
       id="path13577"
       inkscape:connector-curvature="0"
       sodipodi:nodetypes="cccccc" />
    <path
       style="opacity:1;fill:#04aa5a;fill-opacity:1;stroke:none;stroke-width:0.01386186;stroke-linecap:butt;stroke-linejoin:miter;stroke-miterlimit:8.51000023;stroke-dasharray:none;stroke-opacity:1"
       d="m 911.0965,952.79819 c -0.51266,-0.42252 -0.83676,-0.76034 -1.12654,-1.08273 l 7.58005,-6.74639 -4.99027,7.79036 z"
       id="path13529"
       inkscape:connector-curvature="0"
       sodipodi:nodetypes="ccccc" />
    <path
       style="opacity:1;fill:#020303;fill-opacity:1;stroke:none;stroke-width:0.01386186;stroke-linecap:butt;stroke-linejoin:miter;stroke-miterlimit:8.51000023;stroke-dasharray:none;stroke-opacity:1"
       d="m 905.6917,968.88964 c -0.61466,-0.3084 -1.21676,-0.63185 -1.79879,-0.97941 l 4.11993,-6.91989 1.02374,-0.27431 0.21407,0.99502 z"
       id="path13623"
       inkscape:connector-curvature="0"
       sodipodi:nodetypes="cccccc" />
    <path
       style="opacity:1;fill:#ffffff;fill-opacity:1;stroke:none;stroke-width:0.01386186;stroke-linecap:butt;stroke-linejoin:miter;stroke-miterlimit:8.51000023;stroke-dasharray:none;stroke-opacity:1"
       d="m 909.25065,961.71105 c -1.0599,-0.53935 -2.16557,-1.15797 -3.58652,-2.32273 l 5.43237,-6.59013 1.46324,-0.0388 1.52481,0.97033 -3.15358,7.62402 z"
       id="path13575"
       inkscape:connector-curvature="0"
       sodipodi:nodetypes="ccccccc" />
    <path
       style="opacity:1;fill:#3158a7;fill-opacity:1;stroke:none;stroke-width:0.01386186;stroke-linecap:butt;stroke-linejoin:miter;stroke-miterlimit:8.51000023;stroke-dasharray:none;stroke-opacity:1"
       d="m 913.04307,954.06039 c -0.66312,-0.33517 -1.3157,-0.73351 -1.94657,-1.2622 l 6.45351,-7.82912 -3.46546,8.76069 z"
       id="path13525"
       inkscape:connector-curvature="0"
       sodipodi:nodetypes="ccccc" />
    <path
       style="opacity:1;fill:#ec1d24;fill-opacity:1;stroke:none;stroke-width:0.01386186;stroke-linecap:butt;stroke-linejoin:miter;stroke-miterlimit:8.51000023;stroke-dasharray:none;stroke-opacity:1"
       d="m 919.86313,954.84809 1.9468,8.31434 c -0.46622,0.10772 -0.9369,0.2032 -1.41618,0.27507 l -1.29978,-8.43981 0.29836,-0.51678 z"
       id="path13571"
       inkscape:connector-curvature="0"
       sodipodi:nodetypes="cccccc" />
    <path
       style="opacity:1;fill:#ffffff;fill-opacity:1;stroke:none;stroke-width:0.01386186;stroke-linecap:butt;stroke-linejoin:miter;stroke-miterlimit:8.51000023;stroke-dasharray:none;stroke-opacity:1"
       d="m 917.55001,944.96907 2.31312,9.87902 c -0.25426,0.059 -0.51,0.11172 -0.76916,0.1496 z"
       id="path13521"
       inkscape:connector-curvature="0"
       sodipodi:nodetypes="cccc" />
    <path
       style="opacity:1;fill:#3158a7;fill-opacity:1;stroke:none;stroke-width:0.01386186;stroke-linecap:butt;stroke-linejoin:miter;stroke-miterlimit:8.51000023;stroke-dasharray:none;stroke-opacity:1"
       d="m 914.48943,954.64363 -2.57523,8.14117 c -0.95953,-0.30296 -1.84261,-0.66454 -2.66355,-1.07375 l 3.79242,-7.65066 1.04148,-0.33063 z"
       id="path13573"
       inkscape:connector-curvature="0"
       sodipodi:nodetypes="cccccc" />
    <path
       style="opacity:1;fill:#ffffff;fill-opacity:1;stroke:none;stroke-width:0.01386186;stroke-linecap:butt;stroke-linejoin:miter;stroke-miterlimit:8.51000023;stroke-dasharray:none;stroke-opacity:1"
       d="m 917.55001,944.96907 -3.06058,9.67456 c -0.50896,-0.15416 -0.98282,-0.36096 -1.44636,-0.58324 z"
       id="path13523"
       inkscape:connector-curvature="0"
       sodipodi:nodetypes="cccc" />
    <path
       style="opacity:1;fill:#ec1d24;fill-opacity:1;stroke:none;stroke-width:0.01386186;stroke-linecap:butt;stroke-linejoin:miter;stroke-miterlimit:8.51000023;stroke-dasharray:none;stroke-opacity:1"
       d="m 901.13661,953.89946 -7.03801,3.82837 c -0.30246,-0.55815 -0.60674,-1.15458 -0.9157,-1.84933 l 7.31226,-3.27361 0.75528,0.43606 z"
       id="path13625"
       inkscape:connector-curvature="0"
       sodipodi:nodetypes="cccccc" />
    <path
       style="opacity:1;fill:#fec733;fill-opacity:1;stroke:none;stroke-width:0.01386186;stroke-linecap:butt;stroke-linejoin:miter;stroke-miterlimit:8.51000023;stroke-dasharray:none;stroke-opacity:1"
       d="m 908.63727,949.81822 -7.50066,4.08124 c -0.22333,-0.40932 -0.43772,-0.83951 -0.64145,-1.29457 l 7.79371,-3.48902 0.49632,0.13298 z"
       id="path13579"
       inkscape:connector-curvature="0"
       sodipodi:nodetypes="cccccc" />
    <path
       style="opacity:1;fill:#ec1d24;fill-opacity:1;stroke:none;stroke-width:0.01386186;stroke-linecap:butt;stroke-linejoin:miter;stroke-miterlimit:8.51000023;stroke-dasharray:none;stroke-opacity:1"
       d="m 917.55001,944.96907 -8.91274,4.84915 c -0.10015,-0.1844 -0.2071,-0.38996 -0.3484,-0.70235 z"
       id="path13531"
       inkscape:connector-curvature="0"
       sodipodi:nodetypes="cccc" />
    <path
       style="opacity:1;fill:#bd2025;fill-opacity:1;stroke:none;stroke-width:0.01386186;stroke-linecap:butt;stroke-linejoin:miter;stroke-miterlimit:8.51000023;stroke-dasharray:none;stroke-opacity:1"
       d="m 899.96408,951.28498 -7.54067,2.70805 c -0.20486,-0.58932 -0.40992,-1.18626 -0.61931,-1.95669 l 7.72625,-2.12108 0.81229,0.46897 z"
       id="path13627"
       inkscape:connector-curvature="0"
       sodipodi:nodetypes="cccccc" />
    <path
       style="opacity:1;fill:#ffffff;fill-opacity:1;stroke:none;stroke-width:0.01386186;stroke-linecap:butt;stroke-linejoin:miter;stroke-miterlimit:8.51000023;stroke-dasharray:none;stroke-opacity:1"
       d="m 908.0005,948.39911 -8.03642,2.88587 c -0.14641,-0.41448 -0.2919,-0.84988 -0.43373,-1.36972 l 8.23438,-2.26046 0.51058,0.29478 z"
       id="path13581"
       inkscape:connector-curvature="0"
       sodipodi:nodetypes="cccccc" />
    <path
       style="opacity:1;fill:#bd2025;fill-opacity:1;stroke:none;stroke-width:0.01386186;stroke-linecap:butt;stroke-linejoin:miter;stroke-miterlimit:8.51000023;stroke-dasharray:none;stroke-opacity:1"
       d="m 908.0005,948.39912 c -0.0861,-0.24212 -0.16601,-0.48915 -0.23577,-0.74432 l 9.78528,-2.68573 z"
       id="path13533"
       inkscape:connector-curvature="0"
       sodipodi:nodetypes="cccc" />
    <path
       style="opacity:1;fill:#36bded;fill-opacity:1;stroke:none;stroke-width:0.01386186;stroke-linecap:butt;stroke-linejoin:miter;stroke-miterlimit:8.51000023;stroke-dasharray:none;stroke-opacity:1"
       d="m 895.14784,930.44541 c 0.75705,-1.17025 1.58721,-2.24388 2.47358,-3.24324 l 5.98107,5.33151 v 5.26568 l -8.21508,-4.74297 z"
       id="path13633"
       inkscape:connector-curvature="0"
       sodipodi:nodetypes="cccccc" />
    <path
       style="opacity:1;fill:#ec1d24;fill-opacity:1;stroke:none;stroke-width:0.01386186;stroke-linecap:butt;stroke-linejoin:miter;stroke-miterlimit:8.51000023;stroke-dasharray:none;stroke-opacity:1"
       d="m 890.87135,945.98985 c 0,0 -0.0193,-0.49164 -0.0193,-1.02079 0,-6.09013 2.06702,-11.10396 4.29577,-14.52365 l 6.72278,4.35858 1.92808,7.19568 -4.34371,4.4645 -7.1197,0.68121 z"
       id="path13631"
       inkscape:connector-curvature="0"
       sodipodi:nodetypes="cccccccc" />
    <path
       style="opacity:1;fill:#ffffff;fill-opacity:1;stroke:none;stroke-width:0.01386186;stroke-linecap:butt;stroke-linejoin:miter;stroke-miterlimit:8.51000023;stroke-dasharray:none;stroke-opacity:1"
       d="m 902.68295,933.64869 c 0.26293,-0.34307 0.55264,-0.70371 0.91954,-1.11501 l 6.37322,5.68349 v 1.54256 l -7.21261,-5.12145 z"
       id="path13597"
       inkscape:connector-curvature="0"
       sodipodi:nodetypes="cccccc" />
    <path
       style="opacity:1;fill:#ec1d24;fill-opacity:1;stroke:none;stroke-width:0.01386186;stroke-linecap:butt;stroke-linejoin:miter;stroke-miterlimit:8.51000023;stroke-dasharray:none;stroke-opacity:1"
       d="m 901.87062,934.80399 c 0.24251,-0.36567 0.4967,-0.73937 0.81233,-1.1553 l 6.80481,5.1814 v 1.9423 l -7.60141,-4.38867 z"
       id="path13595"
       inkscape:connector-curvature="0"
       sodipodi:nodetypes="cccccc" />
    <path
       style="opacity:1;fill:#04aa5a;fill-opacity:1;stroke:none;stroke-width:0.01386186;stroke-linecap:butt;stroke-linejoin:miter;stroke-miterlimit:8.51000023;stroke-dasharray:none;stroke-opacity:1"
       d="m 909.0358,939.44959 c 0.3079,-0.47379 0.62223,-0.87272 0.93991,-1.23242 l 7.5743,6.7519 -8.45573,-4.26946 z"
       id="path13547"
       inkscape:connector-curvature="0"
       sodipodi:nodetypes="ccccc" />
    <path
       style="opacity:1;fill:#ffffff;fill-opacity:1;stroke:none;stroke-width:0.01386186;stroke-linecap:butt;stroke-linejoin:miter;stroke-miterlimit:8.51000023;stroke-dasharray:none;stroke-opacity:1"
       d="m 899.96104,938.66116 c 0.47541,-1.33636 1.11074,-2.62246 1.90958,-3.85717 l 7.16518,4.6456 v 2.85107 l -8.70915,-2.72386 z"
       id="path13593"
       inkscape:connector-curvature="0"
       sodipodi:nodetypes="cccccc" />
    <path
       style="opacity:1;fill:#3158a7;fill-opacity:1;stroke:none;stroke-width:0.01386186;stroke-linecap:butt;stroke-linejoin:miter;stroke-miterlimit:8.51000023;stroke-dasharray:none;stroke-opacity:1"
       d="m 907.99864,941.54412 c 0.23915,-0.66172 0.55071,-1.34821 1.03716,-2.09453 l 8.51421,5.51948 -9.31517,-2.88327 z"
       id="path13545"
       inkscape:connector-curvature="0"
       sodipodi:nodetypes="ccccc" />
    <path
       style="opacity:1;fill:#3158a6;fill-opacity:1;stroke:none;stroke-width:0.01386186;stroke-linecap:butt;stroke-linejoin:miter;stroke-miterlimit:8.51000023;stroke-dasharray:none;stroke-opacity:1"
       d="m 899.52927,940.02861 c 0.121,-0.44665 0.26457,-0.90232 0.43178,-1.36745 l 8.03759,2.88296 0.56959,1.34239 -8.52575,-1.93738 z"
       id="path13591"
       inkscape:connector-curvature="0"
       sodipodi:nodetypes="cccccc" />
    <path
       style="opacity:1;fill:#ffc834;fill-opacity:1;stroke:none;stroke-width:0.01386186;stroke-linecap:butt;stroke-linejoin:miter;stroke-miterlimit:8.51000023;stroke-dasharray:none;stroke-opacity:1"
       d="m 907.76433,942.2863 c 0.0709,-0.25026 0.14708,-0.49844 0.23431,-0.74218 l 9.55137,3.42495 -9.45379,-2.19018 z"
       id="path13543"
       inkscape:connector-curvature="0"
       sodipodi:nodetypes="ccccc" />
    <path
       style="opacity:1;fill:#04aa59;fill-opacity:1;stroke:none;stroke-width:0.01386186;stroke-linecap:butt;stroke-linejoin:miter;stroke-miterlimit:8.51000023;stroke-dasharray:none;stroke-opacity:1"
       d="m 899.20439,941.41772 c 0.0868,-0.42783 0.18316,-0.87417 0.32488,-1.38911 l 8.23506,2.25769 0.77036,1.33431 -8.70723,-1.31241 z"
       id="path13589"
       inkscape:connector-curvature="0"
       sodipodi:nodetypes="cccccc" />
    <path
       style="opacity:1;fill:#ffffff;fill-opacity:1;stroke:none;stroke-width:0.01386186;stroke-linecap:butt;stroke-linejoin:miter;stroke-miterlimit:8.51000023;stroke-dasharray:none;stroke-opacity:1"
       d="m 907.58788,943.04086 c 0.0488,-0.24693 0.10471,-0.49714 0.17645,-0.75456 l 9.78568,2.68277 -9.64785,-1.49709 z"
       id="path13541"
       inkscape:connector-curvature="0"
       sodipodi:nodetypes="ccccc" />
    <path
       style="opacity:1;fill:#fec733;fill-opacity:1;stroke:none;stroke-width:0.01386186;stroke-linecap:butt;stroke-linejoin:miter;stroke-miterlimit:8.51000023;stroke-dasharray:none;stroke-opacity:1"
       d="m 898.98757,942.82059 c 0.051,-0.44205 0.1197,-0.90544 0.21682,-1.40287 l 8.38349,1.62314 0.88968,1.2326 -8.72362,-0.57831 z"
       id="path13587"
       inkscape:connector-curvature="0"
       sodipodi:nodetypes="cccccc" />
    <path
       style="opacity:1;fill:#36bced;fill-opacity:1;stroke:none;stroke-width:0.01386186;stroke-linecap:butt;stroke-linejoin:miter;stroke-miterlimit:8.51000023;stroke-dasharray:none;stroke-opacity:1"
       d="m 907.47012,943.80251 c 0.0314,-0.249 0.0679,-0.50115 0.11776,-0.76165 l 9.96213,1.92821 -9.70329,-0.6931 z"
       id="path13539"
       inkscape:connector-curvature="0"
       sodipodi:nodetypes="ccccc" />
    <path
       style="opacity:1;fill:#04aa5a;fill-opacity:1;stroke:none;stroke-width:0.01386186;stroke-linecap:butt;stroke-linejoin:miter;stroke-miterlimit:8.51000023;stroke-dasharray:none;stroke-opacity:1"
       d="m 898.87745,944.25713 c 0.0236,-0.55726 0.0635,-1.01736 0.11012,-1.43654 l 8.48255,0.98192 0.80631,1.12497 -8.32405,0.0762 z"
       id="path13585"
       inkscape:connector-curvature="0"
       sodipodi:nodetypes="cccccc" />
    <path
       style="opacity:1;fill:#020202;fill-opacity:1;stroke:none;stroke-width:0.01386186;stroke-linecap:butt;stroke-linejoin:miter;stroke-miterlimit:8.51000023;stroke-dasharray:none;stroke-opacity:1"
       d="m 898.87798,945.68273 c -0.0149,-0.44862 -0.0212,-0.91926 -6e-4,-1.4256 l 8.54973,0.32618 0.79174,0.79175 -0.51083,0.34255 -8.2531,0.74656 z"
       id="path13583"
       inkscape:connector-curvature="0"
       sodipodi:nodetypes="ccccccc" />
    <path
       style="opacity:1;fill:#eb1c23;fill-opacity:1;stroke:none;stroke-width:0.01386186;stroke-linecap:butt;stroke-linejoin:miter;stroke-miterlimit:8.51000023;stroke-dasharray:none;stroke-opacity:1"
       d="m 917.55001,944.96907 -9.84192,0.74854 -0.29739,-0.36059 c -0.0168,-0.51666 -10e-4,-1.02745 0.0594,-1.55451 z"
       id="path13537"
       inkscape:connector-curvature="0"
       sodipodi:nodetypes="ccccc" />
    <path
       style="opacity:1;fill:#37bcee;fill-opacity:1;stroke:none;stroke-width:0.01386186;stroke-linecap:butt;stroke-linejoin:miter;stroke-miterlimit:8.51000023;stroke-dasharray:none;stroke-opacity:1"
       d="m 898.98736,947.11343 -7.95909,0.91878 c -0.0586,-0.58953 -0.12053,-1.12919 -0.15692,-2.04236 l 8.00663,-0.30712 0.57702,0.78144 z"
       id="path13629"
       inkscape:connector-curvature="0"
       sodipodi:nodetypes="cccccc" />
    <path
       style="opacity:1;fill:#fec834;fill-opacity:1;stroke:none;stroke-width:0.01386186;stroke-linecap:butt;stroke-linejoin:miter;stroke-miterlimit:8.51000023;stroke-dasharray:none;stroke-opacity:1"
       d="m 898.98736,947.11343 c -0.0513,-0.47318 -0.0947,-0.94835 -0.10938,-1.4307 l 18.67203,-0.71366 z"
       id="path13535"
       inkscape:connector-curvature="0"
       sodipodi:nodetypes="cccc" />
    <path
       style="opacity:1;fill:#eb1c23;fill-opacity:1;stroke:none;stroke-width:0.01386186;stroke-linecap:butt;stroke-linejoin:miter;stroke-miterlimit:8.51000023;stroke-dasharray:none;stroke-opacity:1"
       d="m 917.55001,944.96907 -3.79814,-9.40918 c 0.23478,-0.0919 0.4732,-0.18268 0.73988,-0.26543 z"
       id="path13549"
       inkscape:connector-curvature="0"
       sodipodi:nodetypes="cccc" />
    <path
       style="fill:#e61b14;stroke-width:0.04145535"
       id="path131"
       inkscape:connector-curvature="0"
       class="st0"
       d="m 914.42473,981.958 h 6.63286 l 0.4726,-2.95991 -1.7287,-1.01566 -1.53384,0.80838 -0.73376,0.92031 -0.99908,-0.7918 -1.41362,0.38968 z" />
    <path
       style="fill:#0260a6;stroke-width:0.04145535"
       id="path133"
       inkscape:connector-curvature="0"
       class="st1"
       d="m 914.42473,981.958 h 6.63286 l -3.5237,3.75171 -2.9848,-2.93504 z" />
    <path
       style="fill:#ffffff;stroke-width:0.04145535"
       id="path135"
       inkscape:connector-curvature="0"
       sodipodi:nodetypes="ccccccc"
       class="st2"
       d="m 915.07559,983.35504 5.23166,-0.54306 1.19806,-1.94426 -0.0746,-0.6467 -7.08058,0.7379 v 1.26439 z" />
    <g
       id="XMLID_1_"
       transform="matrix(0.01404472,0,0,0.01404472,899.42174,973.56522)">
      <path
         style="fill:#010101"
         id="XMLID_4_"
         inkscape:connector-curvature="0"
         class="st3"
         d="m 1092.5,567.3 c 1.5,-131.5 70,-172.5 107,-172.5 52,0 73.5,39.5 77,57 3.5,17.5 23,31.5 29.5,3 6.5,-29 67.5,-116.5 142.5,-116.5 69,0 92.5,71 90.5,131.5 -5.5,164.5 -217.5,295.5 -245,378.5 -25,-50.5 -203.5,-123 -201.5,-281 z M 1473,297.8 c -62,0 -135,45.5 -179,121.5 -12,-27.5 -54.5,-57 -105,-57 -40.5,0 -155,51 -155,215 0,212 214.5,255.5 258,321.5 3,4.5 12.5,8 16,-3 34.5,-102 303,-217.5 303,-425.5 0,-116.5 -76.5,-172.5 -138,-172.5 z" />
    </g>
    <path
       id="path3044"
       inkscape:connector-curvature="0"
       d="m 931.16441,981.22424 c 0.21972,-0.25288 0.3648,-0.39383 0.33164,-0.56794 -0.0332,-0.17411 -0.61768,-0.29433 -0.87884,-0.0498 -0.77108,-0.60939 -0.6094,0.10364 -0.50576,0.26532 -0.91202,0.63841 -1.52972,2.32979 -1.03224,3.65221 0.48502,1.29341 1.95254,1.4468 2.71946,0.53892 0.67158,-0.80423 0.55136,-2.28004 -0.63426,-3.83876 m -0.59696,3.70611 c -0.49746,-0.029 -0.78764,-0.61769 -0.75034,-1.22294 0.0622,-1.06125 0.94932,-2.13495 0.94932,-2.13495 0.21144,0.1907 0.82912,1.21464 0.8001,2.0023 -0.0332,0.76692 -0.50162,1.3846 -0.99908,1.35559 z"
       style="stroke-width:0.04145535" />
    <path
       id="XMLID_40_"
       inkscape:connector-curvature="0"
       d="m 902.55193,978.6623 c -1.7204,-0.12437 -3.6232,1.29755 -3.55273,3.14646 0.008,0.17411 0.15339,0.33579 0.3731,0.33579 0.26531,0 1.04468,-0.029 1.04468,-0.029 0,0 -1.538,1.21464 -1.538,2.63241 0,0.75034 0.56379,1.64993 1.73284,1.64993 1.64163,0 2.87285,-1.3473 2.87285,-2.48733 0,-0.0829 -0.0995,-0.21142 -0.26117,-0.0124 -0.26117,0.31092 -1.6209,1.71211 -2.97649,1.71211 -0.45601,0 -0.84984,-0.26117 -0.84984,-0.80009 0,-0.70888 1.12344,-2.09349 3.05527,-2.63241 0.46844,-0.14095 0.51404,-0.80009 -0.0912,-0.82911 -0.58866,-0.029 -2.63241,0.19484 -2.78165,0.19484 -0.14924,0 -0.16168,-0.0332 -0.10364,-0.16997 0.0705,-0.17411 0.82082,-1.48824 3.0677,-1.73283 0.76692,-0.058 0.6923,-0.9286 0.008,-0.97835"
       style="stroke-width:0.04145535" />
    <path
       id="XMLID_39_"
       inkscape:connector-curvature="0"
       d="m 904.98951,980.81797 c 0,-0.44771 -0.65915,-0.72132 -0.91203,-0.0912 -0.47673,1.21464 -0.62597,4.90003 0.98249,4.90003 0.70889,0 1.60848,-1.54629 1.60848,-3.05526 0,-1.24366 -0.51406,-2.05619 -0.6177,-2.20543 -0.10363,-0.14924 -0.25287,-0.0705 -0.24043,0.20313 0.0207,0.27361 0.0995,2.81482 -0.69645,3.73513 -0.31507,0.34408 -0.54721,-0.0124 -0.57623,-0.35237 -0.10364,-0.98664 0.45187,-2.48732 0.45187,-3.13403"
       style="stroke-width:0.04145535" />
    <path
       id="path3048"
       inkscape:connector-curvature="0"
       d="m 912.70019,981.075 c 0,0 0.25288,-0.34408 0.0995,-0.53892 -0.17411,-0.21971 -0.72132,-0.28604 -1.24366,0.29433 -0.67987,0.76693 -1.16075,2.37954 -0.64671,3.72684 0.49333,1.29341 1.87379,1.40533 2.52049,0.42284 0.57624,-0.87471 0.42284,-2.33808 -0.72962,-3.90509 m -0.3648,3.70196 c -0.44771,0 -0.7006,-0.58452 -0.7006,-1.21464 0,-1.11515 0.80009,-2.13495 0.80009,-2.13495 0.21971,0.28189 0.75033,1.07369 0.75033,1.88207 0.008,0.80009 -0.39382,1.46752 -0.84982,1.46752 z"
       style="stroke-width:0.04145535" />
    <path
       id="path3050"
       inkscape:connector-curvature="0"
       d="m 910.57353,985.73458 c -0.48502,-0.66743 -1.09027,-2.00229 -2.00643,-2.81482 0.93274,-0.058 2.11422,-0.78765 2.11422,-1.56701 0,-0.57623 -0.59695,-0.99078 -1.37631,-0.99078 -0.77937,0 -1.63749,0.26116 -1.96499,0.4643 -0.42284,0.24458 -0.10364,0.8291 0.28605,0.67572 0,0 -0.14925,0.68816 -0.1907,1.05296 -0.32336,-0.0414 -0.38554,0.0207 -0.36481,0.0912 0.0207,0.0705 0.15338,0.12436 0.31506,0.32335 -0.0498,0.43528 -0.13265,2.3671 -0.12022,2.53707 0.0207,0.16996 0.12022,0.19484 0.26531,0.0207 0.12437,-0.15338 0.40212,-0.53892 0.53478,-1.98156 0.14923,0.12436 0.5555,0.66743 1.04467,1.29755 0.72133,0.9286 0.96177,0.99907 1.25609,1.09442 0.15754,0.0498 0.3275,-0.0415 0.20728,-0.20313 m -2.41684,-3.33716 c 0.0415,-0.50575 0.0788,-1.02394 0.0788,-1.02394 0,0 1.12343,-0.28605 1.50897,-0.24459 0.33579,0.0332 0.40626,0.17411 0.23215,0.44357 -0.39383,0.61354 -1.32243,0.83325 -1.81989,0.82496 z"
       style="stroke-width:0.04145535" />
    <path
       id="XMLID_34_"
       inkscape:connector-curvature="0"
       d="m 922.55829,980.48633 c 0.029,1.00322 -0.85814,2.59925 -0.91202,3.75586 -0.0415,0.84983 0.11192,1.19391 0.18238,1.30584 0.0788,0.12022 0.24046,0.12437 0.28606,-0.0829 0.13264,-0.63841 1.04052,-2.30906 1.16074,-3.66051 0.0705,-0.8291 -0.1824,-1.33486 -0.47674,-1.42606 -0.14094,-0.0456 -0.24042,-0.0332 -0.24042,0.10778"
       style="stroke-width:0.04145535" />
    <path
       id="XMLID_33_"
       inkscape:connector-curvature="0"
       d="m 925.84569,980.35367 c -1.23536,0 -2.12252,0.43529 -2.12252,1.43436 0,0.60939 0.45602,1.03224 1.18148,1.15246 0.42284,0.0788 0.8291,0.11193 0.98248,0.16167 0.26532,0.0995 -0.37722,0.40627 -1.3846,1.09028 -0.68816,0.4643 -1.18562,0.95347 -1.45508,1.47996 -0.0912,0.1824 0.0332,0.35237 0.22386,0.21971 0.37724,-0.26117 1.2022,-0.69645 2.0023,-1.13173 0.76692,-0.42285 1.47994,-0.87885 1.47994,-1.45508 0,-0.5182 -0.39382,-0.71718 -0.68814,-0.75035 -0.5182,-0.058 -1.64164,-0.0124 -1.64164,-0.66743 0,-0.24458 0.32334,-0.56379 1.35558,-0.56379 0.79594,0.004 0.72134,-0.97006 0.0663,-0.97006"
       style="stroke-width:0.04145535" />
    <path
       id="XMLID_32_"
       inkscape:connector-curvature="0"
       d="m 927.40027,980.53608 c 0.4021,0.77107 -0.2819,2.88115 -0.2819,3.68123 0,0.80009 0.0912,1.08199 0.30262,1.34316 0.10364,0.13265 0.25288,0.058 0.26532,-0.0912 0.0622,-0.7006 0.82082,-2.61998 0.87056,-3.51127 0.0622,-1.13173 -0.49746,-1.57116 -0.82912,-1.60018 -0.1824,-0.0124 -0.4187,0.0166 -0.32748,0.17826"
       style="stroke-width:0.04145535" />
    <path
       id="XMLID_31_"
       inkscape:connector-curvature="0"
       d="m 927.67801,979.44166 c -0.0207,0.7379 1.20636,0.85812 1.20636,-0.0415 0,-0.78765 -0.65914,-1.4385 -0.7918,-1.54628 -0.20314,-0.16997 -0.49746,-0.14095 -0.42698,0.13266 0.16166,0.56793 0.0207,1.2022 0.0124,1.45508"
       style="stroke-width:0.04145535" />
    <path
       id="XMLID_30_"
       inkscape:connector-curvature="0"
       d="m 936.12661,985.55218 c -0.16168,-0.99079 0.0622,-2.26761 0.0622,-3.46982 0,-0.92031 -0.76692,-1.38875 -1.21464,-1.38875 -0.58866,0 -0.93274,0.26531 -0.93274,0.26531 0.008,-0.17411 0.0332,-0.44357 0.029,-0.52648 -0.008,-0.0995 -0.12022,-0.0995 -0.28604,-0.008 -0.9286,0.57623 -1.06126,2.22615 -1.06126,3.37032 0,1.14417 0.1824,1.55043 0.20314,1.70796 0.0207,0.14924 0.19482,0.16997 0.2736,0.0415 0.49332,-0.95348 0.5472,-2.6946 0.71718,-3.66466 0.23214,-0.31506 1.18148,-0.3731 1.22292,0.37725 0.0415,0.77107 -0.0332,2.71947 0.75036,3.39105 0.0953,0.0912 0.25702,0.0497 0.23628,-0.0954"
       style="stroke-width:0.04145535" />
    <path
       id="XMLID_29_"
       inkscape:connector-curvature="0"
       d="m 905.31285,989.21683 0.25288,-0.30262 c 0.17411,0.14094 0.35652,0.23215 0.57623,0.23215 0.17411,0 0.28189,-0.0705 0.28189,-0.18241 v -0.008 c 0,-0.10364 -0.0622,-0.16167 -0.39382,-0.24458 -0.39383,-0.0995 -0.63841,-0.21143 -0.63841,-0.58867 v -0.008 c 0,-0.35237 0.2819,-0.58452 0.67572,-0.58452 0.2819,0 0.51819,0.0912 0.71717,0.24459 l -0.22385,0.32335 c -0.16997,-0.12022 -0.33579,-0.1907 -0.50576,-0.1907 -0.16168,0 -0.24458,0.0788 -0.24458,0.16997 v 0.008 c 0,0.12437 0.0829,0.16997 0.41455,0.25288 0.39383,0.10364 0.6094,0.24458 0.6094,0.58452 v 0.008 c 0,0.38553 -0.29434,0.59695 -0.70889,0.59695 -0.28605,-0.004 -0.58038,-0.0995 -0.81253,-0.31091"
       style="stroke-width:0.04145535" />
    <path
       id="path3058"
       inkscape:connector-curvature="0"
       d="m 907.25711,988.53282 v 0 c 0,-0.5555 0.43528,-1.00322 1.03224,-1.00322 0.59695,0 1.02394,0.44357 1.02394,0.99907 v 0.008 c 0,0.54721 -0.43527,1.00322 -1.03223,1.00322 -0.58867,-0.008 -1.02395,-0.45186 -1.02395,-1.00737 m 1.61676,0 v 0 c 0,-0.33578 -0.24458,-0.60939 -0.58452,-0.60939 -0.34409,0 -0.58452,0.27361 -0.58452,0.60525 v 0.008 c 0,0.33164 0.24458,0.60939 0.58452,0.60939 0.34407,-0.008 0.58452,-0.2736 0.58452,-0.61354 z"
       style="stroke-width:0.04145535" />
    <polygon
       id="XMLID_26_"
       points="1080.3,1040 1070.1,1040 1070.1,993.4 1079.6,993.4 1101.5,1022.2 1101.5,993.4 1111.6,993.4 1111.6,1040 1103,1040 1080.3,1010.3 "
       transform="matrix(0.04145535,0,0,0.04145535,865.44524,946.38516)" />
    <path
       id="XMLID_25_"
       inkscape:connector-curvature="0"
       d="m 912.07007,988.53282 v 0 c 0,-0.5555 0.42699,-1.00322 1.0198,-1.00322 0.35238,0 0.5638,0.0912 0.75864,0.26531 l -0.26532,0.32335 c -0.14924,-0.12436 -0.2819,-0.19484 -0.50576,-0.19484 -0.3109,0 -0.5555,0.27361 -0.5555,0.60525 v 0.008 c 0,0.35237 0.2446,0.60939 0.58868,0.60939 0.15338,0 0.29432,-0.0414 0.4021,-0.12022 v -0.2736 h -0.42698 v -0.36481 h 0.84154 v 0.84154 c -0.19484,0.16997 -0.46844,0.31092 -0.8291,0.31092 -0.61354,-0.008 -1.0281,-0.43114 -1.0281,-1.00737"
       style="stroke-width:0.04145535" />
    <path
       id="XMLID_24_"
       inkscape:connector-curvature="0"
       d="m 915.40309,988.53282 v 0 c 0,-0.5555 0.41454,-1.00322 1.0115,-1.00322 0.3648,0 0.58452,0.12022 0.76692,0.30262 l -0.2736,0.31092 c -0.14924,-0.13266 -0.30262,-0.21972 -0.49332,-0.21972 -0.32334,0 -0.56378,0.27361 -0.56378,0.60525 v 0.008 c 0,0.33164 0.23214,0.60939 0.56378,0.60939 0.21972,0 0.35652,-0.0912 0.50576,-0.22386 l 0.2736,0.27361 c -0.19484,0.21142 -0.42284,0.34408 -0.7918,0.34408 -0.57622,-0.008 -0.99906,-0.44357 -0.99906,-1.00737"
       style="stroke-width:0.04145535" />
    <path
       id="path3063"
       inkscape:connector-curvature="0"
       d="m 917.55461,988.53282 v 0 c 0,-0.5555 0.43528,-1.00322 1.03224,-1.00322 0.59696,0 1.02394,0.44357 1.02394,0.99907 v 0.008 c 0,0.54721 -0.43526,1.00322 -1.03222,1.00322 -0.59696,-0.008 -1.02396,-0.45186 -1.02396,-1.00737 m 1.61262,0 v 0 c 0,-0.33578 -0.2446,-0.60939 -0.58452,-0.60939 -0.34408,0 -0.58452,0.27361 -0.58452,0.60525 v 0.008 c 0,0.33164 0.24458,0.60939 0.58452,0.60939 0.34822,-0.008 0.58452,-0.2736 0.58452,-0.61354 z"
       style="stroke-width:0.04145535" />
    <polygon
       id="XMLID_21_"
       points="1328.6,1040 1318.5,1040 1318.5,993.4 1327.9,993.4 1349.8,1022.2 1349.8,993.4 1360,993.4 1360,1040 1351.2,1040 1328.6,1010.3 "
       transform="matrix(0.04145535,0,0,0.04145535,865.44524,946.38516)" />
    <polygon
       id="XMLID_20_"
       points="1409.4,1002.9 1395.4,1002.9 1395.4,1040 1385,1040 1385,1002.9 1370.8,1002.9 1370.8,993.4 1409.4,993.4 "
       transform="matrix(0.04145535,0,0,0.04145535,865.44524,946.38516)" />
    <polygon
       id="XMLID_19_"
       points="1431.6,1030.8 1457,1030.8 1457,1040 1421.5,1040 1421.5,993.4 1456.7,993.4 1456.7,1002.5 1431.6,1002.5 1431.6,1012 1453.6,1012 1453.6,1021.1 1431.6,1021.1 "
       transform="matrix(0.04145535,0,0,0.04145535,865.44524,946.38516)" />
    <path
       id="XMLID_18_"
       inkscape:connector-curvature="0"
       d="m 926.25195,989.21683 0.25288,-0.30262 c 0.1741,0.14094 0.35652,0.23215 0.57622,0.23215 0.17412,0 0.2819,-0.0705 0.2819,-0.18241 v -0.008 c 0,-0.10364 -0.0622,-0.16167 -0.39382,-0.24458 -0.39384,-0.0995 -0.63842,-0.21143 -0.63842,-0.58867 v -0.008 c 0,-0.35237 0.2819,-0.58452 0.67572,-0.58452 0.2819,0 0.5182,0.0912 0.71718,0.24459 l -0.22386,0.32335 c -0.16996,-0.12022 -0.33578,-0.1907 -0.50576,-0.1907 -0.16168,0 -0.24458,0.0788 -0.24458,0.16997 v 0.008 c 0,0.12437 0.0829,0.16997 0.41456,0.25288 0.39382,0.10364 0.6094,0.24458 0.6094,0.58452 v 0.008 c 0,0.38553 -0.29434,0.59695 -0.7089,0.59695 -0.2819,-0.004 -0.58038,-0.0995 -0.81252,-0.31091"
       style="stroke-width:0.04145535" />
    <polygon
       id="XMLID_17_"
       points="1551,1002.9 1536.8,1002.9 1536.8,1040 1526.5,1040 1526.5,1002.9 1512.2,1002.9 1512.2,993.4 1551,993.4 "
       transform="matrix(0.04145535,0,0,0.04145535,865.44524,946.38516)" />
    <g
       id="flowRoot13798"
       style="font-style:normal;font-weight:normal;font-size:40px;line-height:1.25;font-family:sans-serif;letter-spacing:0px;word-spacing:0px;fill:#000000;fill-opacity:1;stroke:none"
       transform="matrix(0.05691055,0,0,0.05691055,692.83573,775.43545)"
       aria-label="ROTTERDAM 2020">
      <path
         inkscape:connector-curvature="0"
         id="path13806"
         style="font-style:normal;font-variant:normal;font-weight:normal;font-stretch:normal;font-family:Gotham;-inkscape-font-specification:Gotham;fill:#000000"
         d="m 3757.12,3808.3285 -8.6,-11.44 q 1.64,-0.28 3.04,-0.96 1.4,-0.68 2.4,-1.68 1.04,-1.04 1.6,-2.4 0.56,-1.4 0.56,-3.16 0,-1.88 -0.72,-3.4 -0.72,-1.56 -2.04,-2.64 -1.32,-1.12 -3.2,-1.72 -1.84,-0.6 -4.16,-0.6 h -12.04 v 28 h 3.16 v -10.88 h 8 l 8.12,10.88 z m -4.2,-19.52 q 0,1.36 -0.56,2.44 -0.52,1.08 -1.48,1.84 -0.96,0.72 -2.28,1.12 -1.32,0.4 -2.88,0.4 h -8.6 v -11.36 h 8.64 q 3.4,0 5.28,1.48 1.88,1.44 1.88,4.08 z" />
      <path
         inkscape:connector-curvature="0"
         id="path13808"
         style="font-style:normal;font-variant:normal;font-weight:normal;font-stretch:normal;font-family:Gotham;-inkscape-font-specification:Gotham;fill:#000000"
         d="m 3793.8893,3794.2885 q 0,-2.92 -1.0401,-5.52 -1,-2.64 -2.8799,-4.6 -1.88,-2 -4.52,-3.16 -2.6001,-1.16 -5.8,-1.16 -3.2,0 -5.8401,1.2 -2.6399,1.16 -4.52,3.16 -1.8799,2 -2.9199,4.64 -1.0401,2.6 -1.0401,5.52 0,2.92 1,5.56 1.0401,2.6 2.92,4.6 1.8801,1.96 4.48,3.12 2.6401,1.16 5.8401,1.16 3.1999,0 5.84,-1.16 2.64,-1.2 4.52,-3.2 1.8799,-2 2.9199,-4.6 1.0401,-2.64 1.0401,-5.56 z m -3.28,0.08 q 0,2.4 -0.8401,4.52 -0.7999,2.08 -2.2399,3.64 -1.44,1.56 -3.48,2.48 -2,0.88 -4.4,0.88 -2.4001,0 -4.44,-0.92 -2,-0.92 -3.4801,-2.48 -1.48,-1.56 -2.3199,-3.68 -0.8,-2.12 -0.8,-4.52 0,-2.4 0.8,-4.48 0.8399,-2.12 2.28,-3.68 1.44,-1.56 3.44,-2.44 2.04,-0.92 4.44,-0.92 2.4,0 4.4,0.92 2.04,0.92 3.52,2.48 1.48,1.56 2.2799,3.68 0.8401,2.12 0.8401,4.52 z" />
      <path
         inkscape:connector-curvature="0"
         id="path13810"
         style="font-style:normal;font-variant:normal;font-weight:normal;font-stretch:normal;font-family:Gotham;-inkscape-font-specification:Gotham;fill:#000000"
         d="m 3813.3897,3783.2485 h 9.4 v -2.92 h -22 v 2.92 h 9.4 v 25.08 h 3.2 z" />
      <path
         inkscape:connector-curvature="0"
         id="path13812"
         style="font-style:normal;font-variant:normal;font-weight:normal;font-stretch:normal;font-family:Gotham;-inkscape-font-specification:Gotham;fill:#000000"
         d="m 3844.4305,3783.2485 h 9.4 v -2.92 h -22 v 2.92 h 9.4 v 25.08 h 3.2 z" />
      <path
         inkscape:connector-curvature="0"
         id="path13814"
         style="font-style:normal;font-variant:normal;font-weight:normal;font-stretch:normal;font-family:Gotham;-inkscape-font-specification:Gotham;fill:#000000"
         d="m 3883.8223,3780.3285 h -20.24 v 28 h 20.44 v -2.88 h -17.28 v -9.8 h 15.28 v -2.88 h -15.28 v -9.56 h 17.08 z" />
      <path
         inkscape:connector-curvature="0"
         id="path13816"
         style="font-style:normal;font-variant:normal;font-weight:normal;font-stretch:normal;font-family:Gotham;-inkscape-font-specification:Gotham;fill:#000000"
         d="m 3917.3892,3808.3285 -8.6,-11.44 q 1.64,-0.28 3.04,-0.96 1.4,-0.68 2.4,-1.68 1.04,-1.04 1.6,-2.4 0.56,-1.4 0.56,-3.16 0,-1.88 -0.72,-3.4 -0.72,-1.56 -2.04,-2.64 -1.32,-1.12 -3.2,-1.72 -1.84,-0.6 -4.16,-0.6 h -12.04 v 28 h 3.16 v -10.88 h 8 l 8.12,10.88 z m -4.2,-19.52 q 0,1.36 -0.56,2.44 -0.52,1.08 -1.48,1.84 -0.96,0.72 -2.28,1.12 -1.32,0.4 -2.88,0.4 h -8.6 v -11.36 h 8.64 q 3.4,0 5.28,1.48 1.88,1.44 1.88,4.08 z" />
      <path
         inkscape:connector-curvature="0"
         id="path13818"
         style="font-style:normal;font-variant:normal;font-weight:normal;font-stretch:normal;font-family:Gotham;-inkscape-font-specification:Gotham;fill:#000000"
         d="m 3952.0413,3794.2885 q 0,-2.96 -1.08,-5.52 -1.08,-2.56 -3.08,-4.44 -1.96,-1.88 -4.7201,-2.92 -2.7199,-1.08 -6,-1.08 h -9.7199 v 28 h 9.7199 q 3.2801,0 6,-1.08 2.7601,-1.08 4.7201,-2.96 2,-1.88 3.08,-4.44 1.08,-2.6 1.08,-5.56 z m -3.28,0.08 q 0,2.36 -0.84,4.36 -0.8001,2 -2.3201,3.52 -1.48,1.48 -3.6399,2.32 -2.16,0.84 -4.8001,0.84 h -6.56 v -22.16 h 6.56 q 2.6401,0 4.8001,0.88 2.1599,0.84 3.6399,2.36 1.52,1.48 2.3201,3.52 0.84,2.04 0.84,4.36 z" />
      <path
         inkscape:connector-curvature="0"
         id="path13820"
         style="font-style:normal;font-variant:normal;font-weight:normal;font-stretch:normal;font-family:Gotham;-inkscape-font-specification:Gotham;fill:#000000"
         d="m 3974.2013,3780.1285 h -2.96 l -12.76,28.2 h 3.24 l 3.32,-7.4 h 15.24 l 3.28,7.4 h 3.4 z m 4.84,17.96 h -12.76 l 6.4,-14.28 z" />
      <path
         inkscape:connector-curvature="0"
         id="path13822"
         style="font-style:normal;font-variant:normal;font-weight:normal;font-stretch:normal;font-family:Gotham;-inkscape-font-specification:Gotham;fill:#000000"
         d="m 4020.2859,3785.6485 v 22.68 h 3.16 v -28 h -3.2 l -10.2,15.28 -10.2001,-15.28 h -3.1999 v 28 h 3.08 v -22.64 l 10.1999,14.96 h 0.1601 z" />
      <path
         inkscape:connector-curvature="0"
         id="path13824"
         style="font-style:normal;font-variant:normal;font-weight:normal;font-stretch:normal;font-family:Gotham;-inkscape-font-specification:Gotham;fill:#000000"
         d="m 4061.8463,3782.7685 q 1.12,0 2.16,0.4 1.04,0.36 1.8,1.08 0.76,0.68 1.2,1.68 0.48,0.96 0.48,2.2 0,1.04 -0.32,2.04 -0.28,0.96 -1,2 -0.68,1 -1.8,2.16 -1.12,1.16 -2.72,2.6 l -10.16,8.96 v 2.44 h 19.56 v -2.88 h -14.84 l 7.48,-6.64 q 1.84,-1.6 3.16,-2.92 1.32,-1.36 2.2,-2.6 0.88,-1.28 1.28,-2.56 0.44,-1.28 0.44,-2.84 0,-1.72 -0.64,-3.16 -0.64,-1.48 -1.8,-2.52 -1.16,-1.08 -2.76,-1.68 -1.56,-0.6 -3.48,-0.6 -1.84,0 -3.32,0.4 -1.44,0.4 -2.64,1.16 -1.16,0.76 -2.16,1.88 -1,1.12 -1.96,2.52 l 2.32,1.68 q 1.68,-2.36 3.4,-3.56 1.72,-1.24 4.12,-1.24 z" />
      <path
         inkscape:connector-curvature="0"
         id="path13826"
         style="font-style:normal;font-variant:normal;font-weight:normal;font-stretch:normal;font-family:Gotham;-inkscape-font-specification:Gotham;fill:#000000"
         d="m 4103.5459,3794.2885 q 0,-2.96 -0.84,-5.56 -0.8,-2.64 -2.36,-4.6 -1.52,-2 -3.72,-3.12 -2.16,-1.16 -4.84,-1.16 -2.72,0 -4.92,1.16 -2.2,1.16 -3.76,3.16 -1.52,1.96 -2.36,4.6 -0.84,2.64 -0.84,5.6 0,2.96 0.8,5.6 0.84,2.6 2.36,4.6 1.56,1.96 3.72,3.12 2.2,1.12 4.92,1.12 2.68,0 4.88,-1.16 2.2,-1.16 3.72,-3.12 1.56,-2 2.4,-4.64 0.84,-2.64 0.84,-5.6 z m -3.28,0.08 q 0,2.32 -0.6,4.44 -0.56,2.08 -1.68,3.68 -1.08,1.56 -2.68,2.52 -1.56,0.92 -3.52,0.92 -1.96,0 -3.56,-0.92 -1.6,-0.96 -2.72,-2.56 -1.12,-1.6 -1.72,-3.72 -0.6,-2.12 -0.6,-4.44 0,-2.32 0.6,-4.4 0.6,-2.12 1.68,-3.68 1.12,-1.6 2.68,-2.52 1.6,-0.96 3.56,-0.96 1.96,0 3.52,0.96 1.6,0.96 2.72,2.56 1.12,1.6 1.72,3.72 0.6,2.08 0.6,4.4 z" />
      <path
         inkscape:connector-curvature="0"
         id="path13828"
         style="font-style:normal;font-variant:normal;font-weight:normal;font-stretch:normal;font-family:Gotham;-inkscape-font-specification:Gotham;fill:#000000"
         d="m 4121.8267,3782.7685 q 1.12,0 2.16,0.4 1.04,0.36 1.8,1.08 0.76,0.68 1.2,1.68 0.48,0.96 0.48,2.2 0,1.04 -0.32,2.04 -0.28,0.96 -1,2 -0.68,1 -1.8,2.16 -1.12,1.16 -2.72,2.6 l -10.16,8.96 v 2.44 h 19.56 v -2.88 h -14.84 l 7.48,-6.64 q 1.84,-1.6 3.16,-2.92 1.32,-1.36 2.2,-2.6 0.88,-1.28 1.28,-2.56 0.44,-1.28 0.44,-2.84 0,-1.72 -0.64,-3.16 -0.64,-1.48 -1.8,-2.52 -1.16,-1.08 -2.76,-1.68 -1.56,-0.6 -3.48,-0.6 -1.84,0 -3.32,0.4 -1.44,0.4 -2.64,1.16 -1.16,0.76 -2.16,1.88 -1,1.12 -1.96,2.52 l 2.32,1.68 q 1.68,-2.36 3.4,-3.56 1.72,-1.24 4.12,-1.24 z" />
      <path
         inkscape:connector-curvature="0"
         id="path13830"
         style="font-style:normal;font-variant:normal;font-weight:normal;font-stretch:normal;font-family:Gotham;-inkscape-font-specification:Gotham;fill:#000000"
         d="m 4163.7501,3794.2885 q 0,-2.96 -0.84,-5.56 -0.8,-2.64 -2.36,-4.6 -1.52,-2 -3.72,-3.12 -2.16,-1.16 -4.84,-1.16 -2.72,0 -4.9199,1.16 -2.2001,1.16 -3.7601,3.16 -1.52,1.96 -2.3599,4.6 -0.84,2.64 -0.84,5.6 0,2.96 0.8,5.6 0.8399,2.6 2.3599,4.6 1.56,1.96 3.7201,3.12 2.2,1.12 4.9199,1.12 2.68,0 4.88,-1.16 2.2,-1.16 3.72,-3.12 1.56,-2 2.4,-4.64 0.84,-2.64 0.84,-5.6 z m -3.28,0.08 q 0,2.32 -0.6,4.44 -0.56,2.08 -1.6799,3.68 -1.0801,1.56 -2.6801,2.52 -1.56,0.92 -3.52,0.92 -1.9599,0 -3.5599,-0.92 -1.6001,-0.96 -2.72,-2.56 -1.12,-1.6 -1.72,-3.72 -0.6,-2.12 -0.6,-4.44 0,-2.32 0.6,-4.4 0.6,-2.12 1.68,-3.68 1.1199,-1.6 2.6799,-2.52 1.6001,-0.96 3.56,-0.96 1.96,0 3.52,0.96 1.6,0.96 2.7201,2.56 1.1199,1.6 1.7199,3.72 0.6,2.08 0.6,4.4 z" />
    </g>
    <path
       style="opacity:1;fill:#000000;fill-opacity:1;stroke:none;stroke-width:0.00693093;stroke-linecap:butt;stroke-linejoin:miter;stroke-miterlimit:8.51000023;stroke-dasharray:none;stroke-opacity:1"
       d="m 908.97039,908.11991 c -0.81294,0 -1.59183,0.58231 -1.59183,1.52497 0,0.94754 0.77405,1.51435 1.57564,1.51435 0.85763,0 1.57809,-0.62366 1.57809,-1.53763 0,-0.89564 -0.73955,-1.50169 -1.5619,-1.50169 z m -0.0147,0.71649 c 0.38861,0 0.75547,0.32393 0.75547,0.81785 0,0.45395 -0.3285,0.78319 -0.7468,0.78319 -0.36992,0 -0.7676,-0.31283 -0.7676,-0.80399 0,-0.41934 0.29092,-0.79705 0.75893,-0.79705 z"
       id="path13843"
       inkscape:connector-curvature="0" />
    <path
       style="opacity:1;fill:#000000;fill-opacity:1;stroke:none;stroke-width:0.00693093;stroke-linecap:butt;stroke-linejoin:miter;stroke-miterlimit:8.51000023;stroke-dasharray:none;stroke-opacity:1"
       d="m 912.74953,908.12154 c -0.62263,0 -0.89674,0.46015 -0.89674,0.46015 v -0.402 h -0.83171 v 3.77877 h 0.83171 v -1.24205 c 0,0 0.29134,0.43265 0.9047,0.43265 0.82094,0 1.3262,-0.68852 1.3262,-1.50867 0,-0.86066 -0.52782,-1.51885 -1.33416,-1.51885 z m -0.20949,0.7082 c 0.32621,0 0.70571,0.27598 0.70571,0.80864 0,0.50825 -0.354,0.79993 -0.71372,0.79993 -0.38935,0 -0.6965,-0.36094 -0.6965,-0.81216 0,-0.45899 0.32654,-0.79641 0.70451,-0.79641 z"
       id="path13847"
       inkscape:connector-curvature="0" />
    <path
       style="opacity:1;fill:#000000;fill-opacity:1;stroke:none;stroke-width:0.00693093;stroke-linecap:butt;stroke-linejoin:miter;stroke-miterlimit:8.51000023;stroke-dasharray:none;stroke-opacity:1"
       d="m 915.97495,908.12165 c -0.8238,0 -1.43708,0.65123 -1.43708,1.51505 0,0.93919 0.66808,1.52096 1.52102,1.52096 0.61236,0 0.9212,-0.25804 1.1775,-0.51142 l -0.4947,-0.43665 c 0,0 -0.27972,0.2833 -0.66364,0.2833 -0.44206,0 -0.66086,-0.30025 -0.70434,-0.5666 h 2.0065 c 0,0 0.0188,-0.13875 0.0178,-0.23154 0,-0.78148 -0.40594,-1.5731 -1.42308,-1.5731 z m -0.003,0.6697 c 0.30982,0 0.56922,0.23072 0.61338,0.62205 h -1.22852 c 0.026,-0.27539 0.24076,-0.62205 0.61514,-0.62205 z"
       id="path13851"
       inkscape:connector-curvature="0" />
    <path
       style="opacity:1;fill:#000000;fill-opacity:1;stroke:none;stroke-width:0.00693093;stroke-linecap:butt;stroke-linejoin:miter;stroke-miterlimit:8.51000023;stroke-dasharray:none;stroke-opacity:1"
       d="m 918.82531,911.09069 h -0.8317 v -2.91377 h 0.8317 v 0.40477 c 0,0 0.30446,-0.4713 0.84558,-0.4713 0.55586,0 0.9842,0.40111 0.9842,0.97033 v 2.00997 h -0.83172 v -1.70501 c 0,-0.33449 -0.2227,-0.50638 -0.48226,-0.50638 -0.25416,0 -0.5158,0.19802 -0.5158,0.5341 z"
       id="path13855"
       inkscape:connector-curvature="0"
       sodipodi:nodetypes="ccccccccccccc" />
    <path
       style="opacity:1;fill:#000000;fill-opacity:1;stroke:none;stroke-width:0.00693093;stroke-linecap:butt;stroke-linejoin:miter;stroke-miterlimit:8.51000023;stroke-dasharray:none;stroke-opacity:1"
       d="m 923.99579,911.09069 v -2.91099 h -0.37428 v 1.72048 c 0,0.47723 -0.41786,0.89971 -0.92556,0.89971 -0.5022,0 -0.8349,-0.36585 -0.8349,-0.88746 v -1.73273 h -0.37426 v 1.76045 c 0,0.80238 0.4988,1.21505 1.18342,1.21505 0.67538,0 0.9513,-0.46651 0.9513,-0.46651 v 0.402 z"
       id="path13857"
       inkscape:connector-curvature="0"
       sodipodi:nodetypes="ccccccccccccc" />
    <path
       style="opacity:1;fill:#000000;fill-opacity:1;stroke:none;stroke-width:0.00693093;stroke-linecap:butt;stroke-linejoin:miter;stroke-miterlimit:8.51000023;stroke-dasharray:none;stroke-opacity:1"
       d="m 926.28343,908.11049 c -0.73112,0 -1.10104,0.57153 -1.10104,0.57153 v -0.50233 h -0.37428 v 3.77043 h 0.37428 v -1.35928 c 0,0 0.38634,0.56558 1.10958,0.56558 0.7313,0 1.41636,-0.61305 1.41636,-1.5254 0,-0.82129 -0.56764,-1.52053 -1.4249,-1.52053 z m -0.0258,0.36144 c 0.6417,0 1.05128,0.56554 1.05128,1.17133 0,0.79941 -0.57304,1.14419 -1.04588,1.14419 -0.64858,0 -1.07866,-0.58275 -1.07866,-1.16499 0,-0.56958 0.4271,-1.15053 1.07326,-1.15053 z"
       id="path13859"
       inkscape:connector-curvature="0" />
  </g>
  <style
     id="style13690"
     type="text/css">
	.st0{fill:#E61B14;}
	.st1{fill:#0260A6;}
	.st2{fill:#FFFFFF;}
	.st3{fill:#010101;}
</style>
</svg>
